<?xml version="1.0" standalone="no"?>
<!DOCTYPE svg PUBLIC "-//W3C//DTD SVG 1.1//EN" "http://www.w3.org/Graphics/SVG/1.1/DTD/svg11.dtd" >
<!--
2013-9-30: Created.
-->
<svg>
<metadata>
Created by iconfont
</metadata>
<defs>

<font id="iconfont" horiz-adv-x="1024" >
  <font-face
    font-family="iconfont"
    font-weight="500"
    font-stretch="normal"
    units-per-em="1024"
    ascent="896"
    descent="-128"
  />
    <missing-glyph />
    
    <glyph glyph-name="baocun" unicode="&#59107;" d="M486.577954 739.90864h101.688183v-203.376366a101.688183 101.688183 0 0 0-101.688183-101.688183h-152.532274a101.688183 101.688183 0 0 0-101.688182 101.688183v203.376366h101.688182v-203.376366h152.532274z m-279.642502 101.688182H610.129096a152.532274 152.532274 0 0 0 108.806356-47.285005l208.460774-217.612711a152.532274 152.532274 0 0 0 42.200596-105.247269v-392.516385a152.532274 152.532274 0 0 0-152.532274-152.532274h-610.129096a152.532274 152.532274 0 0 0-152.532274 152.532274v610.129096a152.532274 152.532274 0 0 0 152.532274 152.532274z m0-101.688182a50.844091 50.844091 0 0 1-50.844092-50.844092v-610.129096a50.844091 50.844091 0 0 1 50.844092-50.844092h610.129096a50.844091 50.844091 0 0 1 50.844092 50.844092V471.451837a50.844091 50.844091 0 0 1-14.236346 35.082423L645.71996 724.146971a50.844091 50.844091 0 0 1-35.590864 15.761669z"  horiz-adv-x="1024" />

    
    <glyph glyph-name="VIP" unicode="&#59016;" d="M694.6083872 324.67683307000004v-372.42069227h78.26073813V87.49331519999998c125.08619947-1.85555413 188.50250133 3.71110933 206.0756928 110.460064 5.56666347 31.21697493-5.56666347 66.25420907-19.4287456 85.46465493-41.25879893 55.8849344-165.3626464 42.0228512-264.90768533 41.25879894zM772.86912533 150.80046613000002v108.60450987c58.0679392 1.85555413 119.519536 8.29541973 129.67050987-38.63919253 16.6999904-78.47903787-64.39865387-71.82087253-129.67050987-69.96531734zM543.87187627 322.82127892999995c0.87320213-123.23064533 0.87320213-247.3344928 1.85555413-370.56513813h76.40518293V324.67683307000004c-25.75946133-1.09150293-51.6280736-1.09150293-78.26073706-1.85555414zM691.9887808 821.2013728c-120.61103893-120.39273813-240.8946272-239.9122752-362.37886827-360.52331413V821.2013728H38.0695648c0.87320213-23.9039072 0.87320213-48.68101653 1.85555413-72.69407467h70.83851947v-795.70540586c289.6847936 289.9030944 578.49638613 578.71468587 868.18117973 868.39948053H691.9887808z"  horiz-adv-x="1024" />

    
    <glyph glyph-name="cuti" unicode="&#59108;" d="M694.021847 403.320755a208.460775 208.460775 0 0 0 112.873883-74.740815 197.275074 197.275074 0 0 0 37.624627-118.975173 234.899702 234.899702 0 0 0-34.065541-123.551142A203.376365 203.376365 0 0 0 711.817279 3.686197a440.309831 440.309831 0 0 0-168.802383-26.438928h-254.220457a50.844091 50.844091 0 0 0-50.844091 50.844091V727.197617a50.844091 50.844091 0 0 0 50.844091 50.844091h249.644489q145.922542 0 203.376365-63.555114a203.376365 203.376365 0 0 0 59.996028-140.838133 180.496524 180.496524 0 0 0-27.45581-97.112215 206.935452 206.935452 0 0 0-80.333664-73.215491z m-323.368421 39.14995h147.956306A563.860973 563.860973 0 0 1 610.129096 448.571996a122.53426 122.53426 0 0 1 64.063555 31.523337 101.688183 101.688183 0 0 1 27.964251 79.825223A111.34856 111.34856 0 0 1 672.667329 641.779543a121.008937 121.008937 0 0 1-67.114201 33.04866 681.310824 681.310824 0 0 1-101.688183 6.101291H370.653426a25.422046 25.422046 0 0 1-25.422046-25.422046v-187.614697a25.422046 25.422046 0 0 1 25.422046-25.422046z m0-370.144985h173.886792a227.781529 227.781529 0 0 1 148.464747 36.607746 127.618669 127.618669 0 0 1 41.692155 101.688182 124.059583 124.059583 0 0 1-44.234359 101.688183 259.304866 259.304866 0 0 1-159.650447 36.099305H370.653426a25.422046 25.422046 0 0 1-25.422046-25.422046v-225.239324a25.422046 25.422046 0 0 1 25.422046-25.422046z"  horiz-adv-x="1024" />

    
    <glyph glyph-name="juyouduiqi" unicode="&#59110;" d="M870.4 128H153.6a51.2 51.2 0 0 1 0-102.4h716.8a51.2 51.2 0 0 1 0 102.4z m0 614.4H153.6a51.2 51.2 0 0 1 0-102.4h716.8a51.2 51.2 0 0 1 0 102.4z m0-307.2H460.8a51.2 51.2 0 0 1 0-102.4h409.6a51.2 51.2 0 0 1 0 102.4z"  horiz-adv-x="1024" />

    
    <glyph glyph-name="juzuoduiqi" unicode="&#59111;" d="M153.6 128h716.8a51.2 51.2 0 0 0 0-102.4H153.6a51.2 51.2 0 0 0 0 102.4zM153.6 742.4h716.8a51.2 51.2 0 0 0 0-102.4H153.6a51.2 51.2 0 0 0 0 102.4z m0-307.2h409.6a51.2 51.2 0 0 0 0-102.4H153.6a51.2 51.2 0 0 0 0 102.4z"  horiz-adv-x="1024" />

    
    <glyph glyph-name="juzhongduiqi" unicode="&#59112;" d="M870.4 128H153.6a51.2 51.2 0 0 1 0-102.4h716.8a51.2 51.2 0 0 1 0 102.4z m0 614.4H153.6a51.2 51.2 0 0 1 0-102.4h716.8a51.2 51.2 0 0 1 0 102.4z m-153.6-307.2H307.2a51.2 51.2 0 0 1 0-102.4h409.6a51.2 51.2 0 0 1 0 102.4z"  horiz-adv-x="1024" />

    
    <glyph glyph-name="shangchuantupian" unicode="&#59113;" d="M867.90864 321.461768V638.220457a50.844091 50.844091 0 0 1-50.844092 50.844091h-610.129096a50.844091 50.844091 0 0 1-50.844092-50.844091v-499.797418l430.141013 257.779543a152.532274 152.532274 0 0 0 157.108243 0z m0-118.466733l-177.445879 106.264151a50.844091 50.844091 0 0 1-50.844092 0L254.220457 78.93545200000005h562.844091a50.844091 50.844091 0 0 1 50.844092 50.844091z m-660.973188 587.757696h610.129096a152.532274 152.532274 0 0 0 152.532274-152.532274v-508.440914a152.532274 152.532274 0 0 0-152.532274-152.532274h-610.129096a152.532274 152.532274 0 0 0-152.532274 152.532274v508.440914a152.532274 152.532274 0 0 0 152.532274 152.532274z m127.110228-355.90864a76.266137 76.266137 0 1 0 76.266137 76.266137 76.266137 76.266137 0 0 0-76.266137-76.266137z"  horiz-adv-x="1024" />

    
    <glyph glyph-name="xiahuaxian" unicode="&#59116;" d="M156.09136-22.752731a50.844091 50.844091 0 0 0 0 101.688183h711.81728a50.844091 50.844091 0 0 0 0-101.688183z m50.844092 762.661371a50.844091 50.844091 0 0 0 101.688183 0v-305.064549a203.376365 203.376365 0 1 1 406.75273 0v305.064549a50.844091 50.844091 0 1 0 101.688183 0v-305.064549a305.064548 305.064548 0 1 0-610.129096 0z"  horiz-adv-x="1024" />

    
    <glyph glyph-name="xieti" unicode="&#59119;" d="M512 678.89573a33.048659 33.048659 0 0 1-7.118173 33.048659 92.027805 92.027805 0 0 1-47.285005 15.253228 17.286991 17.286991 0 0 0-15.761668 16.270109 26.438928 26.438928 0 0 0 0 7.118173v9.660377q33.5571-3.559086 66.097319-5.084409t60.504468 0h56.945383q33.5571 0 63.555114 5.084409a94.061569 94.061569 0 0 0 0-16.77855 14.744786 14.744786 0 0 0-15.761668-16.77855 107.789474 107.789474 0 0 1-50.844092-15.761669 53.894737 53.894737 0 0 1-18.812314-33.5571L498.780536 104.357498a31.014896 31.014896 0 0 1 7.626614-32.540219 112.365442 112.365442 0 0 1 50.844091-15.761668 16.270109 16.270109 0 0 0 14.744787-16.77855 96.095333 96.095333 0 0 0 0-17.795432q-33.5571 3.559086-68.131083 5.084409H384.889772q-33.048659 0-63.046674-5.084409a96.095333 96.095333 0 0 0 0 17.795432 14.236346 14.236346 0 0 0 13.219464 15.761668 131.686197 131.686197 0 0 1 50.844091 16.270109 50.844091 50.844091 0 0 1 20.337637 33.04866z"  horiz-adv-x="1024" />

    
    <glyph glyph-name="yulan" unicode="&#59121;" d="M185.856 637.7984L117.3504 706.2016c-48.2816 48.2816 24.1152 120.6784 72.3968 72.3968l86.3744-86.3232A554.6496 554.6496 0 0 0 460.8 740.2496L460.8 742.4V793.6a51.2 51.2 0 1 0 102.4 0v-53.3504c66.6624-5.7344 129.3312-22.4768 184.6272-47.9744l86.3744 86.3232a51.2 51.2 0 0 0 72.3968-72.3968l-68.4032-68.4032C921.088 573.44 972.8 484.3008 972.8 384c0-201.6768-208.9984-358.4-460.8-358.4s-460.8 156.7232-460.8 358.4c0 100.3008 51.712 189.44 134.656 253.7984zM512 128c200.6016 0 358.4 118.3232 358.4 256s-157.7984 256-358.4 256-358.4-118.3232-358.4-256 157.7984-256 358.4-256z m0 51.2a204.8 204.8 0 1 0 0 409.6 204.8 204.8 0 0 0 0-409.6z m0 102.4a102.4 102.4 0 1 1 0 204.8 102.4 102.4 0 0 1 0-204.8z"  horiz-adv-x="1024" />

    
    <glyph glyph-name="message" unicode="&#59024;" d="M464 384c0-26.5 21.5-48 48-48s48 21.5 48 48-21.5 48-48 48-48-21.5-48-48zM664 384c0-26.5 21.5-48 48-48s48 21.5 48 48-21.5 48-48 48-48-21.5-48-48zM264 384c0-26.5 21.5-48 48-48s48 21.5 48 48-21.5 48-48 48-48-21.5-48-48zM925.2 557.6c-22.6 53.7-55 101.9-96.3 143.3-41.3 41.3-89.5 73.8-143.3 96.3C630.6 820.3 572.2 832 512 832h-2c-60.6-0.3-119.3-12.3-174.5-35.9-53.3-22.8-101.1-55.2-142-96.5s-73-89.3-95.2-142.8c-23-55.4-34.6-114.3-34.3-174.9 0.3-69.4 16.9-138.3 48-199.9v-152c0-25.4 20.6-46 46-46h152.1c61.6-31.1 130.5-47.7 199.9-48h2.1c59.9 0 118 11.6 172.7 34.3 53.5 22.3 101.6 54.3 142.8 95.2 41.3 40.9 73.8 88.7 96.5 142 23.6 55.2 35.6 113.9 35.9 174.5 0.3 60.9-11.5 120-34.8 175.6z m-151.1-438C704 50.2 611 12 512 12h-1.7c-60.3 0.3-120.2 15.3-173.1 43.5l-8.4 4.5H188V200.8l-4.5 8.4C155.3 262.1 140.3 322 140 382.3c-0.4 99.7 37.7 193.3 107.6 263.8 69.8 70.5 163.1 109.5 262.8 109.9h1.7c50 0 98.5-9.7 144.2-28.9 44.6-18.7 84.6-45.6 119-80 34.3-34.3 61.3-74.4 80-119 19.4-46.2 29.1-95.2 28.9-145.8-0.6-99.6-39.7-192.9-110.1-262.7z"  horiz-adv-x="1024" />

    
    <glyph glyph-name="hanglixiang1" unicode="&#58938;" d="M655.1 711.9h-3.6v24.3c0 52.8-42.9 95.7-95.7 95.7h-83.4c-52.8 0-95.7-42.9-95.7-95.7v-24.3H373c-83.1 0-150.8-67.6-150.8-150.8v-414.2c0-76.5 57.3-139.9 131.3-149.5v-26.9c0-18.8 15.2-34 34-34s34 15.2 34 34v25.6h171.4v-25.6c0-18.8 15.2-34 34-34s34 15.2 34 34v25.8c80.3 3.2 144.7 69.5 144.7 150.6V561.1c0.2 83.1-67.4 150.8-150.5 150.8z m-210.4 24.2c0 15.2 12.4 27.6 27.6 27.6h83.4c15.2 0 27.6-12.4 27.6-27.6v-24.3H444.7v24.3z m21.9-511.5c0-18.8-15.2-34-34-34s-34 15.2-34 34V495.7c0 18.8 15.2 34 34 34s34-15.2 34-34v-271.1z m90 0V495.7c0 18.8 15.2 34 34 34s34-15.2 34-34v-271.1c0-18.8-15.2-34-34-34s-34 15.2-34 34z"  horiz-adv-x="1024" />

    
    <glyph glyph-name="youhui" unicode="&#58948;" d="M927.5 457.8v90.5c0 38.5-31.2 69.6-69.6 69.6H346.4v-374.7c0-19.2-15.6-34.8-34.8-34.8-19.2 0-34.8 15.6-34.8 34.8V618H166.1c-38.4 0-69.6-31.2-69.6-69.6V469c46.9 0 84.9-38 84.9-85s-38-85-84.9-85v-79.4c0-38.5 31.2-69.6 69.6-69.6h691.8c38.4 0 69.6 31.2 69.6 69.6v68.3c-46.9 0-84.9 38-84.9 85s38 84.9 84.9 84.9z m-460.7 51.6h151.7c19.2 0 34.8-15.6 34.8-34.8 0-19.2-15.6-34.8-34.8-34.8H466.8c-19.2 0-34.8 15.6-34.8 34.8 0 19.2 15.5 34.8 34.8 34.8z m243.6-246.6H466.8c-19.2 0-34.8 15.6-34.8 34.8 0 19.2 15.6 34.8 34.8 34.8h243.6c19.2 0 34.8-15.6 34.8-34.8 0-19.2-15.6-34.8-34.8-34.8z"  horiz-adv-x="1024" />

    
    <glyph glyph-name="techan" unicode="&#59020;" d="M902.311497 695.753303c-43.560098 79.510892-148.09185 75.876108-226.821959-2.15406-79.113849-78.404698-86.896092-180.62787-9.076726-231.639684 51.260477-70.060659 152.599514-71.405283 231.711316 6.999414C976.857307 546.986071 984.179063 654.207072 902.311497 695.753303L902.311497 695.753303zM135.632073 527.7151690000001c-7.93267 9.028631-7.048533 22.781866 1.980097 30.723745 9.046027 7.902994 22.76447 7.021927 30.696116-1.972934 0.929162-1.037632 48.184419-53.271274 121.243365-74.590835 28.716019 16.090467 62.362326 24.797779 100.231819 24.168446 36.552497 24.122397 74.750471 34.047444 112.080681 32.144094 0.874927 6.517437 1.654686 13.085016 1.791809 19.995403 41.86141 105.101733-26.811646 217.911008-168.143535 250.971985C194.857966 842.056414 71.414493 775.909901 82.226746 656.7622670000001c-54.494125-97.537454 10.943236-203.690122 137.157823-242.771209 8.398274 13.355169 18.131963 25.394367 28.883841 36.207643C179.971931 478.220918 138.133034 524.8703780000001 135.632073 527.7151690000001L135.632073 527.7151690000001zM401.456325 462.70862c-136.38318 2.267647-209.481012-137.093355-166.109202-298.122865 43.580564-161.815409 171.420161-248.117984 296.060903-184.375218 129.765459 14.836917 206.996424 146.31232 163.414837 308.123636C651.450029 449.367777 516.735861 538.788365 401.456325 462.70862L401.456325 462.70862zM436.652941 28.496263999999996c-4.300956-5.26798-10.564613-8.008394-16.881482-8.008394-4.828982 0-9.700943 1.599428-13.737886 4.897543-172.72897 140.855028-94.954629 333.962118-94.146217 335.88491 4.615111 11.102872 17.324574 16.387225 28.459169 11.731182 11.085476-4.623297 16.32992-17.358343 11.722996-28.446889-2.907213-7.089465-65.463967-165.610852 81.47257-285.440008C442.859293 51.515536 444.245873 37.81448999999998 436.652941 28.496263999999996L436.652941 28.496263999999996z"  horiz-adv-x="1024" />

    
    <glyph glyph-name="feiji" unicode="&#59001;" d="M998.045076 866.090088c-0.624998 0.644998-1.456996 1.059997-2.206993 1.791994-0.624998 0.624998-1.082997 1.497996-1.666996 2.124994C975.004144 889.487019 949.212219 897.736995 924.127293 895.696001c-18.915945-0.709998-37.330891-7.250979-51.625849-21.729936l-80.499764-80.479765-139.291592-138.689593-539.835419 66.645804-73.125785-72.186788 399.33283-203.625404L263.250229 270.401833 36.583893 285.358789 0 249.21189500000003l17.499949-10.581969-7.414979-7.624978L203.253405 125.50225699999999l31.165908-19.062944 19.123944-31.208908 105.541691-193.272434 7.583978 7.519978 10.540969-17.477949 36.125894 36.583893-14.999956 226.625336 175.334486 175.813485 203.584404-399.31483 72.207788 73.103785-66.666804 539.814419 138.707593 139.292592 80.539764 80.502764c14.457958 14.332958 21.040938 32.665904 21.665937 51.707849 2.042994 25.041927-6.165982 50.832851-25.663925 69.959795z"  horiz-adv-x="1024" />

    
    <glyph glyph-name="qiche" unicode="&#58882;" d="M995.733 463.497h-95.767c-4.554 0-8.743-1.357-12.499-3.384l-43.174 130.036c-13.816 73.984-65.875 109.656-129.861 109.656H308.864c-73.449 0-118.028-47.919-129.861-109.585l-43.288-130.478c-3.939 2.283-8.407 3.755-13.261 3.755H26.665C11.948 463.497 0 451.571 0 436.811v-23.139c0-14.716 11.948-26.665 26.665-26.665l36.264-6.195c-11.447-22.38-17.984-47.984-17.984-77.775L31.52 149.54399999999998c0-4.447 0.326-8.979 0.878-13.539-0.508-2.784-0.878-5.688-0.878-8.658V-57.309999999999945c0-26.272 21.325-47.57 47.598-47.57h72.644c26.294 0 47.592 21.297 47.592 47.57v59.356h624.56v-59.355c0-26.272 21.303-47.57 47.598-47.57h72.644c26.272 0 47.592 21.297 47.592 47.57V127.34799999999996c0 2.975-0.365 5.874-0.878 8.658 0.529 4.56 0.878 9.093 0.878 13.539l-13.425 153.487c0 29.868-6.56 55.492-18.05 77.944l35.459 6.032c14.738 0 26.665 11.948 26.665 26.665v23.139c0.004 14.759-11.923 26.685-26.661 26.685z m-784.706 27.329l31.704 84.384 0.442 1.978c3.154 17.065 10.199 20.104 20.605 33.28h496.333c10.499-13.539 17.044-16.977 19.941-33.095l32.21-86.548 11.791-47.015c-2.676-34.401-44.007-61.572-78.402-61.572H277.64c-34.423 0-75.755 27.17-78.425 61.572l11.813 47.015z m22.219-401.285c-39.812 0-72.066 32.26-72.066 72.072s32.254 72.066 72.066 72.066c39.812 0 72.071-32.254 72.071-72.066s-32.259-72.072-72.071-72.072z m402.511 53.167h-0.006c0-11.856-9.601-21.435-21.44-21.435H412.132c-11.833 0-21.44 9.579-21.44 21.435v60.236c0 11.833 9.601 21.413 21.44 21.413h202.18c11.839 0 21.445-9.579 21.445-21.413v-60.236z m154.265-53.167c-39.812 0-72.092 32.26-72.092 72.072s32.281 72.066 72.092 72.066c39.812 0 72.066-32.254 72.066-72.066 0.006-39.812-32.254-72.072-72.066-72.072z"  horiz-adv-x="1024" />

    
    <glyph glyph-name="zuanshi" unicode="&#59027;" d="M950.528 555.904l-101.632 178.688a76.16 76.16 0 0 1-66.368 37.376H241.28a76.16 76.16 0 0 1-66.368-37.376L73.408 555.904c-13.12-23.104-11.52-51.2 4.16-72.96l341.824-472.064c44.416-61.248 140.736-61.248 185.088 0l46.4 64.128 82.56 113.984 118.528 163.712 74.24 102.528 19.968 27.648c15.808 21.76 17.408 49.792 4.352 72.96z m-248-226.56L568.704 144.64c-12.992-17.92-34.176-28.608-56.704-28.608-22.592 0-43.776 10.752-56.704 28.608L321.408 329.408a35.904 35.904 0 0 0 58.112 42.112L512 188.60799999999995l132.416 182.912a35.84 35.84 0 1 0 58.112-42.112z"  horiz-adv-x="1024" />

    
    <glyph glyph-name="gouwushangpinliwushoutidaimianxing" unicode="&#58937;" d="M746.894222 810.666667a113.777778 113.777778 0 0 0 113.493334-106.211556l41.756444-625.777778A113.777778 113.777778 0 0 0 788.593778-42.66666699999996H235.406222a113.777778 113.777778 0 0 0-113.550222 121.344l41.728 625.777778A113.777778 113.777778 0 0 0 277.105778 810.666667h469.788444zM711.111111 640a56.888889 56.888889 0 0 1-34.503111-102.115556 170.752 170.752 0 0 0-329.187556 0 56.888889 56.888889 0 1 1-56.945777-7.082666 227.640889 227.640889 0 0 1 443.022222 0A56.888889 56.888889 0 0 1 711.111111 640z"  horiz-adv-x="1024" />

    
    <glyph glyph-name="zhoubianyou" unicode="&#58899;" d="M936.0256 56.175359999999955C922.4576 31.983359999999948 899.1616 18.159359999999992 871.8976 18.159359999999992L121.9456 18.159359999999992C93.5296 18.159359999999992 82.3936 28.527360000000044 70.7456 52.07935999999995 58.4576 77.03935999999999 63.8336 113.39135999999996 80.0896 137.07136000000003L244.9536 331.88735999999994C290.2656 387.18336 340.5696 382.95935999999995 378.2016 340.71936000000005 402.7776 313.19935999999996 443.6096 264.94336 443.6096 264.94336 460.8896 249.45536000000004 481.2416 234.35136 504.1536 234.35136 526.6816 234.35136 544.4736 263.53535999999997 555.9936 283.63136L655.7056 434.67136C669.2736 458.47936 689.4976 472.04736 716.5056 472.04736 743.5136 472.17536 769.3696 458.73536 783.0656 435.05536L935.5136 130.15936C949.3376 106.09536000000003 949.5936 80.36735999999996 936.0256 56.175359999999955M279.1296 703.98336C344.0256 703.98336 396.6336 651.37536 396.6336 586.35136 396.6336 521.4553599999999 344.0256 468.71936 279.1296 468.71936 214.1056 468.71936 161.4976 521.4553599999999 161.4976 586.35136 161.4976 651.37536 214.1056 703.98336 279.1296 703.98336"  horiz-adv-x="1024" />

    
    <glyph glyph-name="huiyuanjulebu" unicode="&#59194;" d="M874.8125 538.6875l-182.8125-112.5c-2.8125-2.8125-2.8125-2.8125-5.625 0L512 648.375c-2.8125 2.8125-2.8125 2.8125-5.625 0l-196.875-222.1875c-2.8125-2.8125-2.8125-2.8125-5.625 0l-157.5 112.5c-2.8125 2.8125-5.625 0-5.625-2.8125L202.625 136.5c0-5.625 5.625-8.4375 11.25-8.4375h582.1875c5.625 0 8.4375 2.8125 11.25 8.4375l73.125 396.5625c0 5.625-2.8125 8.4375-5.625 5.625zM770.75 80.25H239.1875c-14.0625 0-28.125-11.25-28.125-28.125v-19.6875c0-14.0625 11.25-28.125 28.125-28.125h534.375c14.0625 0 28.125 11.25 25.3125 28.125v19.6875c0 14.0625-14.0625 28.125-28.125 28.125zM112.625 589.3125m-50.625 0a50.625 50.625 0 1 1 101.25 0 50.625 50.625 0 1 1-101.25 0ZM512 710.25m-50.625 0a50.625 50.625 0 1 1 101.25 0 50.625 50.625 0 1 1-101.25 0ZM911.375 589.3125m-50.625 0a50.625 50.625 0 1 1 101.25 0 50.625 50.625 0 1 1-101.25 0Z"  horiz-adv-x="1024" />

    
    <glyph glyph-name="-guoji" unicode="&#58929;" d="M512 832C264.8 832 64 631.2 64 384s200.8-448 448-448 448 200.8 448 448S759.2 832 512 832z m-46.4-831.2c-189.6 23.2-336 184.8-336 380.8 0 29.6 4 58.4 10.4 85.6l229.6-229.6v-48c0-52.8 43.2-96 96-96v-92.8z m331.2 124c-12 39.2-48 67.2-91.2 67.2h-48V335.20000000000005c0 27.2-21.6 48.8-48.8 48.8H313.6v96h103.2c27.2 0 48.8 21.6 48.8 48.8V624H560c53.6 0 97.6 44 97.6 97.6V740c140.8-56.8 240-194.4 240-356 0-100-37.6-190.4-100.8-259.2z"  horiz-adv-x="1024" />

    
    <glyph glyph-name="shangcheng" unicode="&#59065;" d="M892.8340625 746.0971875c-0.0196875 22.1784375-18.0196875 40.1296875-40.1784375 40.1296875h-0.0384375l-683.03625-0.84375c-22.1784375-0.0196875-40.15875-18.0290625-40.1390625-40.2178125L90.125 21.89250000000004c0.0196875-22.1784375 18.0196875-40.119375 40.198125-40.119375h0.039375l763.3921875 0.931875c22.179375 0.0196875 40.160625 18.0384375 40.1203125 40.2375l-41.0409375 723.1546875z m-156.9-290.3925c-38.4909375-87.526875-126.3028125-144.155625-223.7278125-144.24375h-0.3534375c-97.239375 0-185.02125 56.3634375-223.719375 143.694375-8.985 20.2865625 0.166875 44.0146875 20.461875 53.0090625 20.2359375 8.99625 44.01375-0.166875 53.0090625-20.461875 25.8178125-58.265625 84.7809375-95.8846875 150.2671875-95.8846875h0.2353125c65.61375 0.0590625 124.5871875 37.8346875 150.2578125 96.238125 8.945625 20.3053125 32.6446875 29.506875 52.959375 20.6090625 20.30625-8.93625 29.536875-32.6446875 20.61-52.9603125z"  horiz-adv-x="1024" />

    
    <glyph glyph-name="jingdian" unicode="&#58885;" d="M822.04661563 299.259375l0.10312499 42.83437501a52.10625001 52.10625001 0 0 1-1.6875 13.36874999l38.2125 1.21875001c21.253125 1.003125 40.996875 11.25 56.40937501 22.30312499 14.325 10.3125 9.975 33.84375001-6.825 37.62187501-114.890625 25.9125-154.490625 55.81875001-154.490625 55.81874999l0.10312499 42.88125001a47.90625001 47.90625001 0 0 1-0.525 6.825h7.96875A90.9375 90.9375 0 0 1 807.73099063 534.9375c3.525 2.090625 7.1625 4.29375001 10.79999999 6.684375 16.18124999 10.265625 12.871875 36.515625-5.325 41.55937501-116.25 32.4-230.1375 108.525-277.9125 143.04374999 12.1875 9.375 19.2375 25.734375 16.11562501 43.575-2.9625 16.978125-15.6375 30.73125001-31.434375 34.059375-25.875 5.465625-48.590625-15.6-48.590625-42.459375a44.325 44.325 0 0 1 16.65-35.015625c-47.934375-34.565625-161.578125-110.521875-277.70625001-142.86562499-18.20625001-5.053125-21.459375-31.29375001-5.32499999-41.55937501 3.43125001-2.221875 6.759375-4.275 10.040625-6.234375a92.26875001 92.26875001 0 0 1 47.26875-13.2375h8.4375a47.446875 47.446875 0 0 1-0.571875-7.21875001v-42.88124999h0.103125s-39.6-29.90625001-154.490625-55.81875001c-16.8-3.75-21.15-27.35625001-6.825-37.62187499 15.4125-11.090625 35.15625001-21.3 56.409375-22.30312501l38.2125-1.21874999a51.69375001 51.69375001 0 0 1-1.70625-13.36875001v-42.83437499c0.103125 0-39.50625001-52.10625001-154.396875-78.009375-16.875-3.825-21.140625-27.403125-6.871875-37.678125 15.459375-11.1 35.15625001-21.253125 56.409375-22.246875l108.215625-3.440625v-134.475c0-33.215625 25.096875-60.140625 56.053125-60.14062501h113.803125c16.284375 0 29.484375 14.165625 29.484375 31.64062501 15.253125 50.26875001 59.30625001 86.615625 111.225 86.615625s95.9625-36.346875 111.2625-86.615625h0.05625c0-17.475 13.2-31.640625 29.484375-31.64062501h110.26875c30.9375 0 56.053125 26.925 56.053125 60.14062501v134.625l104.0625 3.328125c21.253125 0.99375001 41.00625001 11.146875 56.409375 22.246875 14.26875001 10.3125 9.984375 33.853125-6.871875 37.678125C861.71224062 247.125 822.04661563 299.259375 822.04661563 299.259375z m-310.31250001 223.265625v-0.39375001h153.6c-0.159375-1.715625-0.2625-3.440625-0.26249999-5.21249998v-50.93437501c0-8.709375-6.5625-15.75-14.68125-15.75H373.71536563c-8.175 0-14.7375 7.040625-14.73750001 15.75v50.93437501a50.4375 50.4375 0 0 1-0.309375 5.625zM366.71224062 350.25q145.3125-4.6875 290.62500001 0l76.87499999 2.49375001a51.975 51.975 0 0 1-0.825-8.99062501v-50.93437501c0-8.709375-6.61875001-15.75-14.7375-15.75H305.36224062c-8.11875001 0-14.690625 7.040625-14.69062499 15.75v50.93437501a47.75625001 47.75625001 0 0 1-0.871875 8.99062499z"  horiz-adv-x="1024" />

    
    <glyph glyph-name="lunbobanner-xuanzemoban" unicode="&#58987;" d="M897.71428583 834h-771.42857168C90.8 834 62 810.68571445 62 781.97142891v-624.51428644C62 128.74285693000002 90.8 105.42857138 126.28571417 105.42857138h771.42857168c35.48571415 0 64.28571415 23.31428555 64.28571415 52.02857111V781.97142891C962 810.68571445 933.2 834 897.71428583 834z m-771.42857168-682.02857109v4.28571387c1.41428583-1.50000029 2.82857168-2.91428613 4.28571476-4.28571387h-4.28571476z m749.99999972 8.57142862l-236.01428525 200.8285708-116.52857139-81.64285665-174.85714336 130.58571446-174.85714249-130.58571446L147.71428614 255.42857168V748.28571386h728.57142772v-587.74285633z m-225 289.15714247c-66.38571387 0-120.17142862 50.65714249-120.17142773 113.14285753 0 62.48571415 53.78571387 113.14285753 120.17142773 113.14285664 66.34285751 0 120.17142862-50.65714249 120.1714286-113.14285664 0-62.44285693-53.82857109-113.14285753-120.1714286-113.14285753zM104.85714307 19.714286140000013h814.28571386a42.85714307 42.85714307 0 0 0 0-85.71428614H104.85714307a42.85714307 42.85714307 0 0 0 0 85.71428614z"  horiz-adv-x="1024" />

    
    <glyph glyph-name="zuoyouhuadong" unicode="&#59154;" d="M434.4497632 347.47752s5.0690496 4.84965227 10.30619413 8.30324267c9.71895253 6.45201387 25.49151253 16.64687253 42.1340192 31.85292906 20.14521493 18.4162368 26.25994773 26.55793387 45.2372288 35.18099414 13.4978176 6.13219627 79.74038507 48.7977888 98.49826987 62.1766304 21.83162347 15.56516907 58.1347072 36.51374827 67.4061344 38.3387808 21.44631467 4.22093333 30.14469013-4.66081813 32.65410987-21.903664 0.7073088-4.8125408-1.57725547-8.98872213-6.52514667-15.03141334-7.18552-8.67981973-11.98277867-10.8344928-21.5489184-17.36509653-13.81108587-9.43952213-34.28375893-21.33170453-38.5559936-25.4085568-13.07539733-12.5427328-53.7718752-42.43528-53.77187627-42.43528s25.27757333 9.93834987 46.89962454-4.3410016c11.5941952-9.58906133 21.66134613-21.2618464 19.3887872-31.0146368-4.41959147-18.89978347-11.35187627-32.34629973-11.35187734-32.34629973s15.89808533-6.4585632 15.8893536-23.73852054c-0.01309867-17.2712256-17.4633344-42.69506347-17.4633344-42.69506346s7.07527573-6.13656213 6.418176-20.51633387c-0.65600747-14.3950528-9.08477547-37.02894827-10.29091306-42.98650133-2.42100587-11.924928 0.30126187-4.86275093-2.9525792-12.73484054-0.81973653-1.95274133-3.88801813-11.74700907-13.52292267-22.2114752-29.08372693-31.6106112-89.149344-87.57754667-95.88078933-98.9206912-2.48322347-4.16526507-2.9831424-11.99151147-4.78525334-15.35013866-4.67610027-8.85882987-8.49535147-10.9523776-7.48241386-14.3950528 1.3906048-4.75141547-1.549968-3.16106133-6.57099094-9.62289814-5.0144736-6.43454933-174.99900373 22.4472448-179.47972053 75.09157227-1.49975787 17.69692053 4.64881173 42.57062933 1.40370347 64.68059307-1.75735787 11.92602027-12.19453547 42.72890027-15.52041707 83.8958272-2.84997547 35.18754347 1.540144 81.384224 3.40883733 90.80191573 2.94712213 14.9069792 20.72372373 31.09322667 34.41146774 50.9797504 11.38353067 16.565008 22.8631168 35.1940928 28.96693333 37.2614432 19.44445547 6.586272 33.3243072 4.05829547 33.32430827 4.05829653s5.71959893 2.23981227 7.63522773 2.21689067c1.91999573-0.0338368 20.30239467 17.57466987 32.88988053 13.79034667 7.19206933-2.16777173 11.122656-9.23104107 9.14153494-22.79544214-0.56213653-3.89674987-3.1326816-11.29620907-7.08509867-18.37257493-4.2569536-7.6024832-14.02611733-13.271872-22.32390293-20.1343008-10.74608-8.90467413-20.88090453-8.3829248-20.56108694-7.70945173-1.9156288-3.5092576 1.66021227-8.6077792-4.0550208-16.54536107-5.8942432-8.1919072-8.4375008-4.56039787-10.80611306-8.5139072 0 0 8.34362987-1.21050347 10.78428266-3.78213973 2.10118827-2.2125248 3.73629547-7.75857067 3.73629547-7.75857067M873.14849813 566.09720107V738.5758709300001l115.7749536-86.24260906-115.7749536-86.2360608z m-81.1386304 38.9380288h67.28715734v95.5948096h-67.28715734v-95.5948096z m-69.2671872 0h45.5177504v95.5948096h-45.5177504v-95.5948096z m-67.2871584 0h33.6430336v95.5948096h-33.6430336v-95.5948096zM35.07436587 652.33326187l115.77386133 86.24260906v-172.47866986L35.07436587 652.33326187z m196.9146752 48.2967776h-67.2882496v-95.5948096h67.2882496v95.5948096z m69.2671872 0h-45.51775147v-95.5948096h45.51775147v95.5948096z m67.2871584 0h-33.6430336v-95.5948096h33.6430336v95.5948096z"  horiz-adv-x="1024" />

    
    <glyph glyph-name="shangxiahuadong" unicode="&#58934;" d="M235.115072 21.695638h108.776556v77.405261H235.115072z m108.776556 156.856477H235.115072v-52.171829h108.776556zM288.991861 894.636031L190.786067 761.649018h196.411589z m54.899767-344.061272H235.115072v-38.532135h108.776556z m0-295.981352H235.115072v-38.532135h108.776556z m477.389278-111.845488c-34.099234 23.187479-25.574426 16.367632-36.827173 30.68931a409.190809 409.190809 0 0 0-27.279387 47.056943c-14.662671 25.233433-31.371295 51.148851-43.306028 73.995338s-22.164502 22.164502-34.099234 34.099235a146.626707 146.626707 0 0 1-44.329004 34.099234 21.141525 21.141525 0 0 1-24.551449-7.842824c-18.413586 16.02664-14.662671 16.02664-27.961372 21.82351s-21.82351-8.865801-21.823509-8.865801a79.110223 79.110223 0 0 1-15.685648 11.934732 168.450216 168.450216 0 0 1-18.754579 7.160839c-10.911755 4.4329-28.302364-7.842824-32.394272-13.298701s-5.114885-12.957709-8.524809-20.118549a45.351981 45.351981 0 0 1-4.773893-25.233433s-22.164502 17.390609-34.099234 25.915418-37.168165 18.413586-51.830835 25.915418c-28.302364 14.662671-39.555112 12.616717-43.64702-2.727939s13.639694-38.191142 25.233433-48.761904a40.578089 40.578089 0 0 1 22.505495-11.934732 39.214119 39.214119 0 0 1 9.206793-14.321679c6.478854-6.137862 15.003663-17.049617 21.141525-22.164502s9.206793-6.137862 12.275724-9.206793 0-7.160839 10.570763-17.390609a191.296703 191.296703 0 0 0 24.551448-45.010989c5.114885-11.252747 9.888778-22.505495 13.298702-31.712288a124.462204 124.462204 0 0 0 5.796869-29.666334 21.482517 21.482517 0 0 1 2.727939-8.183816 23.187479 23.187479 0 0 1-5.455877-4.091908 13.980686 13.980686 0 0 1-3.409924-6.819847h-7.501831a8.865801 8.865801 0 0 1-2.727939 5.455878 65.470529 65.470529 0 0 1-7.842824 7.842823l-11.593739 10.911755a18.754579 18.754579 0 0 1-12.275725 6.137862 143.557776 143.557776 0 0 1-16.02664 24.892441 60.696637 60.696637 0 0 1-34.099234 18.754579 30.348318 30.348318 0 0 1-28.984349-3.068931c-8.865801-6.478854-7.501832-20.118548 0-31.371295a153.105561 153.105561 0 0 1 12.616717-15.685648 115.255411 115.255411 0 0 0 19.777556-43.64702c5.79687-10.22977 11.252747-10.911755 20.118548-20.45954s15.685648-12.957709 22.846487-20.800533 19.436563-23.187479 22.505494-25.574426a477.389277 477.389277 0 0 1 106.048618-28.984349c25.233433-6.819847 45.692974 3.750916 68.198468-3.068931a322.237762 322.237762 0 0 0 41.260074-24.89244c65.129537-34.099234 144.23976 74.677323 151.059607 130.259074a34.099234 34.099234 0 0 1-9.888778 28.984349zM287.2869-128l98.205794 132.987013H189.081106zM342.186667 641.619714H233.41011v-52.171829h108.776557z m0 104.343656H233.41011v-77.405261h108.776557z"  horiz-adv-x="1024" />

    
    <glyph glyph-name="datuhengxianghuadong1" unicode="&#59067;" d="M53.75999998 869.45185187h932.06755555v-932.06755556H53.75999998V869.45185187z m116.50844445-116.50844445v-699.05066666h699.05066667V752.94340742H170.26844443zM694.55644443 578.1807407599999m-116.50844445 0a116.50844445 116.50844445 0 1 1 233.01688889 0 116.50844445 116.50844445 0 1 1-233.01688889 0ZM461.53955553 345.16385187000003l233.0168889-233.01688889H228.52266665zM1102.33599998 869.45185187h116.50844445v-932.06755556h-116.50844445z"  horiz-adv-x="1280" />

    
    <glyph glyph-name="huadongbuju" unicode="&#58881;" d="M34.603008 252.81126400000005h416.35840001v-57.632768h-416.35840001v57.632768z m-1.183744 486.580224h416.3584v-458.051584h-416.3584V739.391488z m0-581.35142399h241.604608v-40.68352001H33.419264v40.68351999z m1.183744-72.63232001h415.174656v-56.799232H34.603008v56.799232z m334.37696 363.66131201c-17.75616 50.93376-26.198016 100.057088-68.122624 94.07283199-41.92256-5.986304-70.744064-106.303488-83.847168-115.779584-13.09900801-9.476096 0 48.238592-26.202112 36.182016-26.200064-12.060672-43.536384-52.772864-52.402176-72.35993599-8.865792-19.58707201-94.326784-25.655296 0-43.41964801 94.326784-17.760256 191.20947199-17.299456 230.57408 0 39.368704 17.29536 17.760256 50.37056 0 101.30432001z m-162.193408 148.77081599c0 34.363392-20.191232 62.253056-45.078528 62.253056s-45.082624-27.891712-45.082624-62.253056c0-34.357248 20.189184-62.240768 45.082624-62.240768 24.8832 0 45.078528 27.87737599 45.078528 62.240768z m279.773184-345.028608h416.356352v-57.632768H486.559744v57.632768zM485.376 739.391488h416.356352v-458.051584H485.376V739.391488z m0-581.35142399h241.604608v-40.68352001H485.376v40.68351999z m1.183744-72.63232001H901.73440001v-56.799232H486.559744v56.799232z m334.37696 363.66131201c-17.75616 50.93376-26.200064 100.057088-68.124672 94.07283199-41.92256-5.986304-70.744064-106.303488-83.84512001-115.779584-13.09900801-9.476096 0 48.238592-26.20211199 36.182016-26.200064-12.060672-43.538432-52.772864-52.404224-72.35993599-8.863744-19.58707201-94.326784-25.655296 0-43.41964801 94.328832-17.760256 191.21152-17.299456 230.576128 0 39.366656 17.29536 17.760256 50.37056 0 101.30432001z m-162.19340799 148.77081599c0 34.363392-20.191232 62.253056-45.08057601 62.253056s-45.084672-27.891712-45.084672-62.253056c0-34.357248 20.191232-62.240768 45.084672-62.240768 24.885248 0 45.08057599 27.87737599 45.08057601 62.240768z m292.028416-345.028608h50.01830399v-57.632768h-50.01830399v57.632768z m-1.18374401 486.580224h51.202048v-458.051584h-51.202048V739.391488z m0-581.35142399h51.202048v-40.68352001h-51.202048v40.68352001z m1.18374401-72.63232001h50.01830399v-56.799232h-50.01830399v56.799232z"  horiz-adv-x="1024" />

    
    <glyph glyph-name="colum-height" unicode="&#59375;" d="M910.07051852-9.216000000000008H113.92948148c-5.33997037 0-9.70903703-4.36906667-9.70903703-9.70903703v-72.81777779c0-5.33997037 4.36906667-9.70903703 9.70903703-9.70903703h796.14103704c5.33997037 0 9.70903703 4.36906667 9.70903703 9.70903703v72.81777779c0 5.33997037-4.36906667 9.70903703-9.70903703 9.70903703zM910.07051852 869.45185185H113.92948148c-5.33997037 0-9.70903703-4.36906667-9.70903703-9.70903703v-72.81777779c0-5.33997037 4.36906667-9.70903703 9.70903703-9.70903703h796.14103704c5.33997037 0 9.70903703 4.36906667 9.70903703 9.70903703v72.81777779c0 5.33997037-4.36906667 9.70903703-9.70903703 9.70903703zM631.90660741 546.62637037c7.28177778 0 11.40811852 8.49540741 6.91768889 14.19946666L516.49042963 715.68497778c-3.51952592 4.49042963-10.31585185 4.49042963-13.71401481 0L380.44254815 560.82583703c-4.49042963-5.70405925-0.48545185-14.19946667 6.91768888-14.19946666H468.30933333v-325.25274074h-76.21594074c-7.28177778 0-11.40811852-8.49540741-6.91768889-14.19946666l122.33386667-154.73777779c3.51952592-4.49042963 10.31585185-4.49042963 13.71401481 0l122.33386667 154.73777779c4.49042963 5.70405925 0.48545185 14.19946667-6.91768888 14.19946666H555.69066667V546.62637037h76.21594074z"  horiz-adv-x="1024" />

    
    <glyph glyph-name="xinwen" unicode="&#58915;" d="M253.40586667 292.97777813000005H200.84053333l-102.03591146 155.8755552a182.22648853 182.22648853 0 0 0-11.5143104 19.56977814h-0.7736896c0.91022187-8.28302187 1.36533333-21.0716448 1.36533333-38.41137814V292.97777813000005h-48.69688853V533.9136h56.02417813l98.304-151.50648853c6.5536-10.0124448 10.55857813-16.384 12.01493333-19.11466667h0.77368854c-1.0467552 5.82542187-1.54737813 16.88462187-1.54737814 33.26862187V533.9136h48.6968896V292.97777813000005z m198.656 0H309.4755552V533.9136h137.03395627v-41.9612448H360.76657813v-56.79786667h79.64444374v-41.87022186h-79.64444374v-58.29973334h91.29528854V292.97777813000005z m351.39128853 240.93582187L739.23697813 292.97777813000005h-57.1164448l-41.05102186 157.1043552a130.61688853 130.61688853 0 0 0-3.91395627 26.624h-0.59164373a166.84373333 166.84373333 0 0 0-4.36906667-26.624L590.18808853 292.97777813000005h-59.25546666l-64.26168854 240.93582187h56.3427552l35.77173334-163.29386667c1.54737813-7.1907552 2.6396448-16.2019552 3.2768-27.07911146h1.09226666a141.5395552 141.5395552 0 0 0 4.77866667 27.8528l44.8284448 162.52017813h54.61333333l40.7324448-164.56817813c1.68391147-6.50808853 2.95822187-15.01866667 3.9139552-25.48622187h0.77368854c0.4096 9.0112 1.59288853 17.8403552 3.54986666 26.3964448l35.04355627 163.6579552h52.0647104z m19.93386667-180.26951147c19.38773333-16.06542187 41.41511147-24.12088853 66.08213333-24.12088853 14.01742187 0 24.576 2.41208853 31.58471147 7.28177813 7.05422187 4.77866667 10.60408853 10.96817813 10.60408853 18.56853334a26.3964448 26.3964448 0 0 1-8.4195552 18.4775104c-5.59786667 5.82542187-20.38897813 13.6988448-44.32782187 23.66577813-37.63768853 15.92888853-56.43377813 39.18506667-56.43377813 69.67751147 0 22.39146667 8.51057813 39.82222187 25.5772448 52.20124373 17.0211552 12.37902187 39.59466667 18.56853333 67.72053333 18.56853333 23.5292448 0 43.28106667-3.0492448 59.25546667-9.14773333v-48.24177707a98.57706667 98.57706667 0 0 1-56.75235627 16.47502187c-12.65208853 0-22.7555552-2.2755552-30.3559104-6.91768853-7.5548448-4.59662187-11.37777813-10.78613333-11.37777813-18.56853334 0-6.23502187 2.6396448-11.96942187 7.82791147-17.2032 5.18826667-5.23377813 17.97688853-12.288 38.41137706-21.20817813 23.9388448-10.28551147 40.41386667-21.1171552 49.37955627-32.5404448 8.96568853-11.37777813 13.47128853-24.9856 13.47128853-40.73244373 0-23.1196448-8.192-40.7779552-24.576-52.88391147-16.384-12.15146667-39.68568853-18.2044448-69.8595552-18.2044448-27.57973333 0-50.1987552 4.46008853-67.81155626 13.38026667v51.47306666z"  horiz-adv-x="1024" />

    
    <glyph glyph-name="tuijian" unicode="&#59025;" d="M990.392 86.784s-94.52-18.962-190.43-38.702c-63.92-71.18-127.58-142.198-127.58-142.198L535.336 139.715c-7.746-0.486-15.46-1.167-23.337-1.167-7.875 0-15.59 0.681-23.338 1.167l-137.043-233.83s-63.66 71.018-127.58 142.198c-95.912 19.74-190.43 38.702-190.43 38.702l149.037 254.317c-24.02 48.102-37.86 102.005-37.86 159.215 0.065 199.83 164.466 361.8 367.246 361.8s367.18-161.97 367.18-361.768c0-57.21-13.84-111.113-37.859-159.215l149.04-254.35z m-310.88-72.411s45.899 43.53 89.04 85.474c61.197 17.406 122.945 35.137 122.945 35.137L804.89 282.789c-49.95-65.183-121.649-113.026-204.594-133.22l79.217-135.196z m-546.945 120.61s61.748-17.73 122.945-35.137c43.142-41.944 89.04-85.474 89.04-85.474l79.219 135.164c-82.947 20.193-154.613 68.036-204.594 133.22l-86.61-147.773zM512.032 802.735c-164.888 0-298.53-133.933-298.53-299.113 0-165.211 133.642-299.112 298.53-299.112 164.855 0 298.529 133.932 298.529 299.112 0 165.212-133.642 299.113-298.53 299.113zM327.26 584.05h109.326a594.455 594.455 0 0 1 9.394 18.387h31.579a1202.46 1202.46 0 0 0-9.194-18.388h233.842v-27.981H453.575c-9.993-17.857-20.386-34.645-31.179-50.366v-198.666h-30.38V465.13c-18.387-22.254-37.709-41.907-57.96-58.96-7.196 10.659-13.46 19.587-18.788 26.782 40.773 32.908 75.95 73.95 105.529 123.117H327.26v27.98z m-0.799 76.747H431.99v35.576h30.38v-35.576h111.125v35.976h30.38v-35.976h103.93v-27.981H603.873v-29.18h-30.38v29.18H462.37v-24.784h-30.38v24.784H326.46v27.981zM451.976 436.15h120.32v19.587l58.36 37.575H473.561v27.182h206.66v-27.182l-77.547-49.167v-7.995h105.129v-27.982h-105.13v-53.164c0-31.445-14.524-47.169-43.57-47.169-16.789 0-39.974 0.135-69.553 0.4-1.334 10.128-3.067 20.92-5.197 32.379 24.516-2.13 46.9-3.198 67.155-3.198 13.856 0 20.786 7.464 20.786 22.385v48.367h-120.32V436.15z"  horiz-adv-x="1024" />

    
    <glyph glyph-name="idcard" unicode="&#59359;" d="M955.73333333 759.46666667H68.26666667c-18.88 0-34.13333333-15.25333333-34.13333334-34.13333334v-682.66666666c0-18.88 15.25333333-34.13333333 34.13333334-34.13333334h887.46666666c18.88 0 34.13333333 15.25333333 34.13333334 34.13333334V725.33333333c0 18.88-15.25333333 34.13333333-34.13333334 34.13333334z m-42.66666666-674.13333334H110.93333333V682.66666667h802.13333334v-597.33333334zM616.85333333 422.4h131.62666667c1.38666667 0 2.45333333 3.84 2.45333333 8.53333333v51.2c0 4.69333333-1.06666667 8.53333333-2.45333333 8.53333334H616.85333333c-1.38666667 0-2.45333333-3.84-2.45333333-8.53333334v-51.2c0-4.69333333 1.06666667-8.53333333 2.45333333-8.53333333zM621.97333333 268.79999999999995h198.08c4.16 0 7.57333333 3.84 7.57333334 8.53333333v51.2c0 4.69333333-3.41333333 8.53333333-7.57333334 8.53333334H621.97333333c-4.16 0-7.57333333-3.84-7.57333333-8.53333334v-51.2c0-4.69333333 3.41333333-8.53333333 7.57333333-8.53333333zM204.8 212.26666666999995h46.82666667c4.48 0 8.10666667 3.52 8.42666666 8 4.05333333 53.86666667 49.06666667 96.53333333 103.68 96.53333333s99.62666667-42.66666667 103.68-96.53333333c0.32-4.48 3.94666667-8 8.42666667-8H522.66666667c4.90666667 0 8.74666667 4.05333333 8.53333333 8.96-2.98666667 56.85333333-34.13333333 106.34666667-79.57333333 134.50666666 19.30666667 21.22666667 31.04 49.49333333 31.04 80.53333334 0 66.02666667-53.22666667 119.46666667-118.82666667 119.46666666s-118.82666667-53.44-118.82666667-119.46666666c0-31.04 11.73333333-59.2 31.04-80.53333334-45.54666667-28.26666667-76.58666667-77.65333333-79.57333333-134.50666666-0.42666667-4.90666667 3.41333333-8.96 8.32-8.96z m158.93333333 279.46666666c30.4 0 55.14666667-24.85333333 55.14666667-55.46666666s-24.74666667-55.46666667-55.14666667-55.46666667-55.14666667 24.85333333-55.14666666 55.46666667 24.74666667 55.46666667 55.14666666 55.46666666z"  horiz-adv-x="1024" />

    
    <glyph glyph-name="line-height" unicode="&#59341;" d="M511.99999962 772.3614811h485.45185222v-97.09036999H511.99999962V772.3614811zM269.27407407 626.72592555v-194.18073998H172.18370407V626.72592555H26.54814852l194.18073998 194.18074112 194.18074112-194.18074112H269.27407407z m0-485.4518511h145.63555555l-194.18074112-194.18074112-194.18073998 194.18074112h145.63555555v194.18073998h97.09037v-194.18073998z m242.72592555-48.54518556h485.45185222v-97.09036999H511.99999962v97.09036999z m-97.09037 339.81629668h582.54222222v-97.09037114H414.90962962v97.09037114z"  horiz-adv-x="1024" />

    
    <glyph glyph-name="appstore" unicode="&#59282;" d="M449.86216297 860.39008395H56.32252839c-11.3919368 0-20.71261235-9.32067555-20.71261234-20.71261234v-393.53963458c0-11.3919368 9.32067555-20.71261235 20.71261234-20.71261234h393.53963458c11.3919368 0 20.71261235 9.32067555 20.71261234 20.71261234V839.67747161c0 11.3919368-9.32067555 20.71261235-20.71261234 20.71261234z m-67.31599014-346.93625678H123.63851852V772.36148148h258.90765431v-258.90765431zM967.67747161 860.39008395H574.13783703c-11.3919368 0-20.71261235-9.32067555-20.71261234-20.71261234v-393.53963458c0-11.3919368 9.32067555-20.71261235 20.71261234-20.71261234h393.53963458c11.3919368 0 20.71261235 9.32067555 20.71261234 20.71261234V839.67747161c0 11.3919368-9.32067555 20.71261235-20.71261234 20.71261234z m-67.31599013-346.93625678H641.45382717V772.36148148h258.90765431v-258.90765431zM449.86216297 342.57477530999995H56.32252839c-11.3919368 0-20.71261235-9.32067555-20.71261234-20.71261234v-393.53963458c0-11.3919368 9.32067555-20.71261235 20.71261234-20.71261234h393.53963458c11.3919368 0 20.71261235 9.32067555 20.71261234 20.71261234V321.86216297c0 11.3919368-9.32067555 20.71261235-20.71261234 20.71261234z m-67.31599014-346.93625679H123.63851852V254.54617283000005h258.90765431v-258.90765431zM967.67747161 342.57477530999995H574.13783703c-11.3919368 0-20.71261235-9.32067555-20.71261234-20.71261234v-393.53963458c0-11.3919368 9.32067555-20.71261235 20.71261234-20.71261234h393.53963458c11.3919368 0 20.71261235 9.32067555 20.71261234 20.71261234V321.86216297c0 11.3919368-9.32067555 20.71261235-20.71261234 20.71261234z m-67.31599013-346.93625679H641.45382717V254.54617283000005h258.90765431v-258.90765431z"  horiz-adv-x="1024" />

    
    <glyph glyph-name="dash" unicode="&#59389;" d="M26.54814815 427.69066667h194.18074074v-87.38133334H26.54814815zM414.90962963 427.69066667h194.18074074v-87.38133334H414.90962963zM803.27111111 427.69066667h194.18074074v-87.38133334H803.27111111z"  horiz-adv-x="1024" />

    
    <glyph glyph-name="line" unicode="&#59390;" d="M987.74281482 427.69066667H36.25718518c-5.33997037 0-9.70903703-4.36906667-9.70903703-9.70903704v-67.96325926c0-5.33997037 4.36906667-9.70903703 9.70903703-9.70903704h951.48562964c5.33997037 0 9.70903703 4.36906667 9.70903703 9.70903704v67.96325926c0 5.33997037-4.36906667 9.70903703-9.70903703 9.70903704z"  horiz-adv-x="1024" />

    
    <glyph glyph-name="column-width" unicode="&#59388;" d="M109.07496297 791.7795555499999h-72.81777779c-5.33997037 0-9.70903703-4.36906667-9.70903703-9.70903703v-796.14103704c0-5.33997037 4.36906667-9.70903703 9.70903703-9.70903703h72.81777779c5.33997037 0 9.70903703 4.36906667 9.70903703 9.70903703V782.07051852c0 5.33997037-4.36906667 9.70903703-9.70903703 9.70903703zM987.74281482 791.7795555499999h-72.81777779c-5.33997037 0-9.70903703-4.36906667-9.70903703-9.70903703v-796.14103704c0-5.33997037 4.36906667-9.70903703 9.70903703-9.70903703h72.81777779c5.33997037 0 9.70903703 4.36906667 9.70903703 9.70903703V782.07051852c0 5.33997037-4.36906667 9.70903703-9.70903703 9.70903703zM843.68497778 393.34494815L688.82583703 515.55745185c-5.70405925 4.49042963-14.19946667 0.48545185-14.19946666-6.91768888V427.69066667H349.37362963v76.21594074c0 7.28177778-8.49540741 11.40811852-14.19946666 6.91768889L180.31502222 388.49042963c-4.49042963-3.51952592-4.49042963-10.31585185 0-13.71401481l154.73777778-122.33386667c5.70405925-4.49042963 14.19946667-0.48545185 14.19946667 6.91768888V340.30933332999996h325.25274074v-76.21594074c0-7.28177778 8.49540741-11.40811852 14.19946667-6.91768889l154.73777777 122.33386667c4.61179259 3.51952592 4.61179259 10.31585185 0.24272593 13.83537778z"  horiz-adv-x="1024" />

    
    <glyph glyph-name="hengxiang" unicode="&#58947;" d="M956.70399969 679.36000031H624.416a36.92800031 36.92800031 0 1 0 0 73.85599968h332.28799969a36.92800031 36.92800031 0 1 0 0-73.82399999z m0-184.57600032H624.416a36.92800031 36.92800031 0 1 0 0 73.82400001h332.28799969a36.92800031 36.92800031 0 1 0 0-73.82399999z m0-295.39199999H624.416a36.89599969 36.89599969 0 1 0 0 73.82400001h332.28799969a36.89599969 36.89599969 0 1 0 0-73.82400001z m0-184.63999969H624.416a36.89599969 36.89599969 0 1 0 0 73.85599969h332.28799969a36.89599969 36.89599969 0 1 0 0-73.82400001zM365.95200031 420.96H144.416A110.91199969 110.91199969 0 0 0 33.60000031 531.6799996899999V753.21600001A110.91199969 110.91199969 0 0 0 144.416 864h221.53600031a110.91199969 110.91199969 0 0 0 110.75199938-110.78400001v-221.5360003a110.91199969 110.91199969 0 0 0-110.75199938-110.75199938zM144.416 790.14400031c-20.352 0-36.92800031-16.57600031-36.92800031-36.92800032v-221.5360003c0-20.32000031 16.57600031-36.89599969 36.92800031-36.8959997h221.53600031c20.352 0 36.92800031 16.57600031 36.92799938 36.8959997V753.21600001c0 20.352-16.57600031 36.92800031-36.92799938 36.9280003H144.416zM365.95200031-96H144.416A110.91199969 110.91199969 0 0 0 33.60000031 14.783999989999984v221.53600032a110.91199969 110.91199969 0 0 0 110.784 110.75199938h221.53599938a110.91199969 110.91199969 0 0 0 110.75200031-110.75199938v-221.53600032A110.91199969 110.91199969 0 0 0 365.95200031-96zM144.416 273.21599999c-20.352 0-36.92800031-16.512-36.92800031-36.89599968v-221.53600032c0-20.38399969 16.57600031-36.92800031 36.92800031-36.9280003h221.53600031c20.352 0 36.92800031 16.54399969 36.92799938 36.92800032v221.5360003c0 20.38399969-16.57600031 36.89599969-36.92799938 36.89599968H144.416z"  horiz-adv-x="1058" />

    
    <glyph glyph-name="hengxiang1" unicode="&#58880;" d="M827.35937499-60.70312498999999L827.35937499 271.584375a36.928125 36.928125 0 1 0 73.85625001 0l0-332.28750001a36.928125 36.928125 0 1 0-73.8234375 0z m-184.57499999 0L642.784375 271.584375a36.928125 36.928125 0 1 0 73.8234375 0l0-332.28750001a36.928125 36.928125 0 1 0-73.8234375 0z m-295.39218748 0L347.39218752 271.584375a36.89625001 36.89625001 0 1 0 73.82343748 0l0-332.28750001a36.89625001 36.89625001 0 1 0-73.82343748 0z m-184.640625 0L162.75156249 271.584375a36.89625001 36.89625001 0 1 0 73.85625001 0l0-332.28750001a36.89625001 36.89625001 0 1 0-73.8234375 0zM568.96 530.0475L568.96 751.584375A110.911875 110.911875 0 0 0 679.6796875 862.3996875L901.215625 862.3996875A110.911875 110.911875 0 0 0 1012 751.584375l0-221.53593749a110.911875 110.911875 0 0 0-110.784375-110.75250001l-221.5359375 0A110.911875 110.911875 0 0 0 568.928125 530.04843751zM938.14375001 751.584375c0 20.35125002-16.575 36.928125-36.92812501 36.928125l-221.5359375 0c-20.31937501 0-36.8953125-16.576875-36.8953125-36.928125l0-221.53593749c0-20.353125 16.575-36.928125 36.8953125-36.92812501L901.215625 493.1203125c20.353125 0 36.928125 16.575 36.92812501 36.92812501L938.14375001 751.584375zM52 530.04843751L52 751.584375A110.911875 110.911875 0 0 0 162.784375 862.3996875L384.3203125 862.3996875a110.911875 110.911875 0 0 0 110.7515625-110.784375L495.071875 530.0812500100001a110.911875 110.911875 0 0 0-110.7515625-110.7525L162.784375 419.32874998A110.911875 110.911875 0 0 0 52 530.04843751zM421.215625 751.584375c0 20.35125002-16.51125002 36.928125-36.8953125 36.928125L162.784375 788.5125c-20.3840625 0-36.92812502-16.576875-36.92812499-36.928125l0-221.53593749c0-20.353125 16.5440625-36.928125 36.92812499-36.92812501L384.3203125 493.1203125c20.3840625 0 36.89531249 16.575 36.8953125 36.92812501L421.215625 751.584375z"  horiz-adv-x="1058" />

    
    <glyph glyph-name="image" unicode="&#59358;" d="M955.73333333 759.46666667H68.26666667c-18.88 0-34.13333333-15.25333333-34.13333334-34.13333334v-682.66666666c0-18.88 15.25333333-34.13333333 34.13333334-34.13333334h887.46666666c18.88 0 34.13333333 15.25333333 34.13333334 34.13333334V725.33333333c0 18.88-15.25333333 34.13333333-34.13333334 34.13333334z m-42.66666666-674.13333334H110.93333333v42.56l147.73333334 175.25333334 160.10666666-189.86666667L667.84 408.53333333 913.06666667 117.75999999999999V85.33333332999996z m0 138.45333334L674.34666667 506.88c-3.41333333 4.05333333-9.6 4.05333333-13.01333334 0L418.77333333 219.30666667000003l-153.6 182.08c-3.41333333 4.05333333-9.6 4.05333333-13.01333333 0L110.93333333 233.91999999999996V682.66666667h802.13333334v-458.88zM290.13333333 443.73333333c51.84 0 93.86666667 42.02666667 93.86666667 93.86666667s-42.02666667 93.86666667-93.86666667 93.86666667-93.86666667-42.02666667-93.86666666-93.86666667 42.02666667-93.86666667 93.86666666-93.86666667z m0 123.73333334c16.53333333 0 29.86666667-13.33333333 29.86666667-29.86666667s-13.33333333-29.86666667-29.86666667-29.86666667-29.86666667 13.33333333-29.86666666 29.86666667 13.33333333 29.86666667 29.86666666 29.86666667z"  horiz-adv-x="1024" />

    
    <glyph glyph-name="font-size" unicode="&#59383;" d="M976.21333333 493.22666667H630.32888889c-5.00622222 0-9.10222222-4.096-9.10222222-9.10222222v-127.43111112c0-5.00622222 4.096-9.10222222 9.10222222-9.10222222h54.61333333c5.00622222 0 9.10222222 4.096 9.10222223 9.10222222v63.71555556h68.26666666v-364.08888889h-52.33777778c-5.00622222 0-9.10222222-4.096-9.10222222-9.10222222v-54.61333333c0-5.00622222 4.096-9.10222222 9.10222222-9.10222223h186.59555556c5.00622222 0 9.10222222 4.096 9.10222222 9.10222223v54.61333333c0 5.00622222-4.096 9.10222222-9.10222222 9.10222222h-52.33777778V420.40888889h68.26666667v-63.71555556c0-5.00622222 4.096-9.10222222 9.10222222-9.10222222h54.61333333c5.00622222 0 9.10222222 4.096 9.10222222 9.10222222V484.12444445c0 5.00622222-4.096 9.10222222-9.10222222 9.10222222zM675.84 629.76V775.39555555c0 5.00622222-4.096 9.10222222-9.10222222 9.10222223H47.78666667c-5.00622222 0-9.10222222-4.096-9.10222222-9.10222223v-145.63555555c0-5.00622222 4.096-9.10222222 9.10222222-9.10222222h63.71555555c5.00622222 0 9.10222222 4.096 9.10222223 9.10222222v72.81777778h191.14666666v-637.15555556h-104.67555556c-5.00622222 0-9.10222222-4.096-9.10222222-9.10222222v-63.71555555c0-5.00622222 4.096-9.10222222 9.10222222-9.10222223h300.37333334c5.00622222 0 9.10222222 4.096 9.10222222 9.10222223v63.71555555c0 5.00622222-4.096 9.10222222-9.10222222 9.10222222h-104.67555556V702.57777778h191.14666667v-72.81777778c0-5.00622222 4.096-9.10222222 9.10222222-9.10222222h63.71555556c5.00622222 0 9.10222222 4.096 9.10222222 9.10222222z"  horiz-adv-x="1024" />

    


  </font>
</defs>
</svg>
